<mxfile host="app.diagrams.net" modified="2023-06-06T13:36:02.307Z" agent="Mozilla/5.0 (Windows NT 10.0; Win64; x64) AppleWebKit/537.36 (KHTML, like Gecko) Chrome/112.0.0.0 Safari/537.36 OPR/98.0.0.0" etag="k9OUd376AUNk5Xt7WuM4" version="21.3.7" type="device">
  <diagram name="Page-1" id="TwSyFJ7ag4dOFPG5ZyEe">
    <mxGraphModel dx="1161" dy="638" grid="1" gridSize="10" guides="1" tooltips="1" connect="1" arrows="1" fold="1" page="1" pageScale="1" pageWidth="827" pageHeight="1169" math="0" shadow="0">
      <root>
        <mxCell id="0" />
        <mxCell id="1" parent="0" />
        <mxCell id="Tx9-9Pcmzfj9Pk6M6rrJ-2" value="Categories" style="swimlane;fontStyle=0;childLayout=stackLayout;horizontal=1;startSize=30;horizontalStack=0;resizeParent=1;resizeParentMax=0;resizeLast=0;collapsible=1;marginBottom=0;whiteSpace=wrap;html=1;" parent="1" vertex="1">
          <mxGeometry x="500" y="400" width="140" height="60" as="geometry" />
        </mxCell>
        <mxCell id="Tx9-9Pcmzfj9Pk6M6rrJ-3" value="name" style="text;strokeColor=none;fillColor=none;align=left;verticalAlign=middle;spacingLeft=4;spacingRight=4;overflow=hidden;points=[[0,0.5],[1,0.5]];portConstraint=eastwest;rotatable=0;whiteSpace=wrap;html=1;" parent="Tx9-9Pcmzfj9Pk6M6rrJ-2" vertex="1">
          <mxGeometry y="30" width="140" height="30" as="geometry" />
        </mxCell>
        <mxCell id="Tx9-9Pcmzfj9Pk6M6rrJ-6" value="Listings" style="swimlane;fontStyle=0;childLayout=stackLayout;horizontal=1;startSize=30;horizontalStack=0;resizeParent=1;resizeParentMax=0;resizeLast=0;collapsible=1;marginBottom=0;whiteSpace=wrap;html=1;" parent="1" vertex="1">
          <mxGeometry x="320" y="210" width="140" height="240" as="geometry" />
        </mxCell>
        <mxCell id="Tx9-9Pcmzfj9Pk6M6rrJ-7" value="user_id" style="text;strokeColor=none;fillColor=none;align=left;verticalAlign=middle;spacingLeft=4;spacingRight=4;overflow=hidden;points=[[0,0.5],[1,0.5]];portConstraint=eastwest;rotatable=0;whiteSpace=wrap;html=1;" parent="Tx9-9Pcmzfj9Pk6M6rrJ-6" vertex="1">
          <mxGeometry y="30" width="140" height="30" as="geometry" />
        </mxCell>
        <mxCell id="Tx9-9Pcmzfj9Pk6M6rrJ-8" value="name" style="text;strokeColor=none;fillColor=none;align=left;verticalAlign=middle;spacingLeft=4;spacingRight=4;overflow=hidden;points=[[0,0.5],[1,0.5]];portConstraint=eastwest;rotatable=0;whiteSpace=wrap;html=1;" parent="Tx9-9Pcmzfj9Pk6M6rrJ-6" vertex="1">
          <mxGeometry y="60" width="140" height="30" as="geometry" />
        </mxCell>
        <mxCell id="Tx9-9Pcmzfj9Pk6M6rrJ-9" value="price" style="text;strokeColor=none;fillColor=none;align=left;verticalAlign=middle;spacingLeft=4;spacingRight=4;overflow=hidden;points=[[0,0.5],[1,0.5]];portConstraint=eastwest;rotatable=0;whiteSpace=wrap;html=1;" parent="Tx9-9Pcmzfj9Pk6M6rrJ-6" vertex="1">
          <mxGeometry y="90" width="140" height="30" as="geometry" />
        </mxCell>
        <mxCell id="Tx9-9Pcmzfj9Pk6M6rrJ-15" value="locality" style="text;html=1;strokeColor=none;fillColor=none;align=left;verticalAlign=middle;whiteSpace=wrap;rounded=0;spacingLeft=4;spacingRight=4;" parent="Tx9-9Pcmzfj9Pk6M6rrJ-6" vertex="1">
          <mxGeometry y="120" width="140" height="30" as="geometry" />
        </mxCell>
        <mxCell id="Tx9-9Pcmzfj9Pk6M6rrJ-16" value="description" style="text;html=1;strokeColor=none;fillColor=none;align=left;verticalAlign=middle;whiteSpace=wrap;rounded=0;spacingLeft=4;spacingRight=4;" parent="Tx9-9Pcmzfj9Pk6M6rrJ-6" vertex="1">
          <mxGeometry y="150" width="140" height="30" as="geometry" />
        </mxCell>
        <mxCell id="Tx9-9Pcmzfj9Pk6M6rrJ-17" value="watch_count" style="text;html=1;strokeColor=none;fillColor=none;align=left;verticalAlign=middle;whiteSpace=wrap;rounded=0;spacingLeft=4;spacingRight=4;" parent="Tx9-9Pcmzfj9Pk6M6rrJ-6" vertex="1">
          <mxGeometry y="180" width="140" height="30" as="geometry" />
        </mxCell>
        <mxCell id="Tx9-9Pcmzfj9Pk6M6rrJ-18" value="category_id" style="text;html=1;strokeColor=none;fillColor=none;align=left;verticalAlign=middle;whiteSpace=wrap;rounded=0;spacingLeft=4;spacingRight=4;" parent="Tx9-9Pcmzfj9Pk6M6rrJ-6" vertex="1">
          <mxGeometry y="210" width="140" height="30" as="geometry" />
        </mxCell>
        <mxCell id="Tx9-9Pcmzfj9Pk6M6rrJ-10" value="Users" style="swimlane;fontStyle=0;childLayout=stackLayout;horizontal=1;startSize=30;horizontalStack=0;resizeParent=1;resizeParentMax=0;resizeLast=0;collapsible=1;marginBottom=0;whiteSpace=wrap;html=1;" parent="1" vertex="1">
          <mxGeometry x="140" y="310" width="140" height="150" as="geometry" />
        </mxCell>
        <mxCell id="Tx9-9Pcmzfj9Pk6M6rrJ-11" value="username" style="text;strokeColor=none;fillColor=none;align=left;verticalAlign=middle;spacingLeft=4;spacingRight=4;overflow=hidden;points=[[0,0.5],[1,0.5]];portConstraint=eastwest;rotatable=0;whiteSpace=wrap;html=1;" parent="Tx9-9Pcmzfj9Pk6M6rrJ-10" vertex="1">
          <mxGeometry y="30" width="140" height="30" as="geometry" />
        </mxCell>
        <mxCell id="Tx9-9Pcmzfj9Pk6M6rrJ-12" value="password" style="text;strokeColor=none;fillColor=none;align=left;verticalAlign=middle;spacingLeft=4;spacingRight=4;overflow=hidden;points=[[0,0.5],[1,0.5]];portConstraint=eastwest;rotatable=0;whiteSpace=wrap;html=1;" parent="Tx9-9Pcmzfj9Pk6M6rrJ-10" vertex="1">
          <mxGeometry y="60" width="140" height="30" as="geometry" />
        </mxCell>
        <mxCell id="Tx9-9Pcmzfj9Pk6M6rrJ-13" value="email" style="text;strokeColor=none;fillColor=none;align=left;verticalAlign=middle;spacingLeft=4;spacingRight=4;overflow=hidden;points=[[0,0.5],[1,0.5]];portConstraint=eastwest;rotatable=0;whiteSpace=wrap;html=1;" parent="Tx9-9Pcmzfj9Pk6M6rrJ-10" vertex="1">
          <mxGeometry y="90" width="140" height="30" as="geometry" />
        </mxCell>
        <mxCell id="Tx9-9Pcmzfj9Pk6M6rrJ-14" value="phone_number" style="text;html=1;strokeColor=none;fillColor=none;align=left;verticalAlign=middle;whiteSpace=wrap;rounded=0;spacingLeft=4;spacingRight=4;" parent="Tx9-9Pcmzfj9Pk6M6rrJ-10" vertex="1">
          <mxGeometry y="120" width="140" height="30" as="geometry" />
        </mxCell>
        <mxCell id="Tx9-9Pcmzfj9Pk6M6rrJ-20" value="Photos" style="swimlane;fontStyle=0;childLayout=stackLayout;horizontal=1;startSize=30;horizontalStack=0;resizeParent=1;resizeParentMax=0;resizeLast=0;collapsible=1;marginBottom=0;whiteSpace=wrap;html=1;" parent="1" vertex="1">
          <mxGeometry x="500" y="200" width="140" height="120" as="geometry" />
        </mxCell>
        <mxCell id="Tx9-9Pcmzfj9Pk6M6rrJ-21" value="photo" style="text;strokeColor=none;fillColor=none;align=left;verticalAlign=middle;spacingLeft=4;spacingRight=4;overflow=hidden;points=[[0,0.5],[1,0.5]];portConstraint=eastwest;rotatable=0;whiteSpace=wrap;html=1;" parent="Tx9-9Pcmzfj9Pk6M6rrJ-20" vertex="1">
          <mxGeometry y="30" width="140" height="30" as="geometry" />
        </mxCell>
        <mxCell id="Tx9-9Pcmzfj9Pk6M6rrJ-22" value="desctription" style="text;strokeColor=none;fillColor=none;align=left;verticalAlign=middle;spacingLeft=4;spacingRight=4;overflow=hidden;points=[[0,0.5],[1,0.5]];portConstraint=eastwest;rotatable=0;whiteSpace=wrap;html=1;" parent="Tx9-9Pcmzfj9Pk6M6rrJ-20" vertex="1">
          <mxGeometry y="60" width="140" height="30" as="geometry" />
        </mxCell>
        <mxCell id="Tx9-9Pcmzfj9Pk6M6rrJ-23" value="listing_id" style="text;strokeColor=none;fillColor=none;align=left;verticalAlign=middle;spacingLeft=4;spacingRight=4;overflow=hidden;points=[[0,0.5],[1,0.5]];portConstraint=eastwest;rotatable=0;whiteSpace=wrap;html=1;" parent="Tx9-9Pcmzfj9Pk6M6rrJ-20" vertex="1">
          <mxGeometry y="90" width="140" height="30" as="geometry" />
        </mxCell>
        <mxCell id="Tx9-9Pcmzfj9Pk6M6rrJ-24" style="edgeStyle=orthogonalEdgeStyle;rounded=0;orthogonalLoop=1;jettySize=auto;html=1;exitX=1;exitY=0.5;exitDx=0;exitDy=0;" parent="1" source="Tx9-9Pcmzfj9Pk6M6rrJ-18" edge="1">
          <mxGeometry relative="1" as="geometry">
            <Array as="points">
              <mxPoint x="480" y="435" />
              <mxPoint x="480" y="420" />
              <mxPoint x="500" y="420" />
            </Array>
            <mxPoint x="500" y="420" as="targetPoint" />
          </mxGeometry>
        </mxCell>
        <mxCell id="n-5-G3cGaf4CcfFP6Gq2-1" value="Saved" style="swimlane;fontStyle=0;childLayout=stackLayout;horizontal=1;startSize=30;horizontalStack=0;resizeParent=1;resizeParentMax=0;resizeLast=0;collapsible=1;marginBottom=0;whiteSpace=wrap;html=1;" vertex="1" parent="1">
          <mxGeometry x="140" y="200" width="140" height="90" as="geometry" />
        </mxCell>
        <mxCell id="n-5-G3cGaf4CcfFP6Gq2-3" value="listing_id" style="text;strokeColor=none;fillColor=none;align=left;verticalAlign=middle;spacingLeft=4;spacingRight=4;overflow=hidden;points=[[0,0.5],[1,0.5]];portConstraint=eastwest;rotatable=0;whiteSpace=wrap;html=1;" vertex="1" parent="n-5-G3cGaf4CcfFP6Gq2-1">
          <mxGeometry y="30" width="140" height="30" as="geometry" />
        </mxCell>
        <mxCell id="n-5-G3cGaf4CcfFP6Gq2-2" value="user_id" style="text;strokeColor=none;fillColor=none;align=left;verticalAlign=middle;spacingLeft=4;spacingRight=4;overflow=hidden;points=[[0,0.5],[1,0.5]];portConstraint=eastwest;rotatable=0;whiteSpace=wrap;html=1;" vertex="1" parent="n-5-G3cGaf4CcfFP6Gq2-1">
          <mxGeometry y="60" width="140" height="30" as="geometry" />
        </mxCell>
        <mxCell id="n-5-G3cGaf4CcfFP6Gq2-6" style="edgeStyle=orthogonalEdgeStyle;rounded=0;orthogonalLoop=1;jettySize=auto;html=1;entryX=1.007;entryY=0.082;entryDx=0;entryDy=0;entryPerimeter=0;" edge="1" parent="1" source="Tx9-9Pcmzfj9Pk6M6rrJ-23" target="Tx9-9Pcmzfj9Pk6M6rrJ-6">
          <mxGeometry relative="1" as="geometry">
            <mxPoint x="480" y="230" as="targetPoint" />
            <Array as="points">
              <mxPoint x="480" y="305" />
              <mxPoint x="480" y="230" />
            </Array>
          </mxGeometry>
        </mxCell>
        <mxCell id="n-5-G3cGaf4CcfFP6Gq2-7" style="edgeStyle=orthogonalEdgeStyle;rounded=0;orthogonalLoop=1;jettySize=auto;html=1;exitX=0;exitY=0.5;exitDx=0;exitDy=0;entryX=1.004;entryY=0.137;entryDx=0;entryDy=0;entryPerimeter=0;" edge="1" parent="1" source="Tx9-9Pcmzfj9Pk6M6rrJ-7" target="Tx9-9Pcmzfj9Pk6M6rrJ-10">
          <mxGeometry relative="1" as="geometry">
            <mxPoint x="300" y="330" as="targetPoint" />
            <Array as="points">
              <mxPoint x="300" y="255" />
              <mxPoint x="300" y="331" />
            </Array>
          </mxGeometry>
        </mxCell>
        <mxCell id="n-5-G3cGaf4CcfFP6Gq2-9" style="edgeStyle=orthogonalEdgeStyle;rounded=0;orthogonalLoop=1;jettySize=auto;html=1;entryX=0;entryY=0.133;entryDx=0;entryDy=0;entryPerimeter=0;" edge="1" parent="1" source="n-5-G3cGaf4CcfFP6Gq2-2" target="Tx9-9Pcmzfj9Pk6M6rrJ-10">
          <mxGeometry relative="1" as="geometry">
            <mxPoint x="110" y="330" as="targetPoint" />
            <Array as="points">
              <mxPoint x="120" y="275" />
              <mxPoint x="120" y="330" />
            </Array>
          </mxGeometry>
        </mxCell>
        <mxCell id="n-5-G3cGaf4CcfFP6Gq2-10" style="edgeStyle=orthogonalEdgeStyle;rounded=0;orthogonalLoop=1;jettySize=auto;html=1;entryX=0.001;entryY=0.078;entryDx=0;entryDy=0;entryPerimeter=0;" edge="1" parent="1" source="n-5-G3cGaf4CcfFP6Gq2-3" target="Tx9-9Pcmzfj9Pk6M6rrJ-6">
          <mxGeometry relative="1" as="geometry">
            <mxPoint x="300" y="230" as="targetPoint" />
          </mxGeometry>
        </mxCell>
      </root>
    </mxGraphModel>
  </diagram>
</mxfile>
